<svg width="107" height="108" viewBox="0 0 107 108" fill="none" xmlns="http://www.w3.org/2000/svg">
<path d="M59.0342 92.25C60.4938 93.9199 61.3788 96.0979 61.3789 98.4824C61.3789 103.739 57.0873 108 51.793 108C46.4989 108 42.207 103.738 42.207 98.4824C42.2072 96.0234 43.1475 93.7826 44.6895 92.0938V64.2754H59.0342V92.25ZM51.9307 92.1387C51.7003 92.1387 51.4729 92.1519 51.249 92.1758C51.0703 92.1949 50.8937 92.2213 50.7197 92.2549C47.8335 92.813 45.6546 95.3269 45.6543 98.3447C45.6543 101.773 48.4648 104.552 51.9307 104.552C55.3965 104.552 58.2061 101.773 58.2061 98.3447L58.1973 98.0254C58.0343 94.8521 55.4616 92.3084 52.2529 92.1475L51.9307 92.1387ZM95.1719 42.6211C100.116 42.6212 104.407 45.419 106.548 49.5176H95.333L95.3164 49.501L88.957 55.8604L95.3096 62.2129V62.3447H105.984C103.706 65.91 99.7167 68.2763 95.1719 68.2764C90.7438 68.2764 86.8393 66.0326 84.5342 62.6201H16.1553C14.4406 64.3265 12.0993 65.3789 9.5166 65.3789C4.26062 65.3788 0.00024305 61.0255 0 55.6553C4.69497e-07 50.2849 4.26047 45.9308 9.5166 45.9307C12.0287 45.9307 14.3118 46.9271 16.0127 48.5518H84.3584C86.637 44.9867 90.627 42.6211 95.1719 42.6211ZM9.65527 49.3789C6.22732 49.3789 3.44824 52.1892 3.44824 55.6553C3.44836 59.1212 6.22739 61.9307 9.65527 61.9307C13.083 61.9305 15.8612 59.1211 15.8613 55.6553C15.8613 52.1893 13.0831 49.3791 9.65527 49.3789ZM58.2061 1.67969C62.0776 3.88773 64.6893 8.0513 64.6895 12.8271C64.6895 17.2545 62.4459 21.1574 59.0342 23.4629V46.7588H44.6895V23.4639C41.2776 21.1584 39.0342 17.2547 39.0342 12.8271C39.0343 8.0518 41.6458 3.88889 45.5166 1.68066V12.6904H45.752L45.5791 12.8633L51.9395 19.2236L58.2988 12.8633L58.126 12.6904H58.2061V1.67969ZM51.9443 0.000976562H51.7783C51.8059 0.00080071 51.8337 3.84618e-06 51.8613 0C51.8888 2.40332e-09 51.9169 0.00080124 51.9443 0.000976562Z" fill="#EDEDED"/>
</svg>
