<svg width="16" height="41" viewBox="0 0 16 41" fill="none" xmlns="http://www.w3.org/2000/svg">
<path d="M8.81836 0.0400764C9.07091 -0.0333309 9.35191 -0.00805798 9.59766 0.133826L14.8633 3.17387C15.3415 3.44999 15.5056 4.06179 15.2295 4.54008L11.498 11.0039C11.4442 11.0972 11.3767 11.1777 11.3008 11.2461C11.176 11.3843 11.0125 11.4903 10.8193 11.542L9 12.0293V12.0313L7.01953 12.5625C6.77597 12.6278 6.5773 12.7774 6.44727 12.9717C6.33272 13.1344 6.26563 13.3328 6.26562 13.5469V20.5352H6.25977V27.0235C6.25978 27.2375 6.32688 27.436 6.44141 27.5987C6.57144 27.793 6.77013 27.9426 7.01367 28.0079L8.99414 28.5391V28.5411L10.8135 29.0284C11.0066 29.0801 11.1702 29.1861 11.2949 29.3243C11.3708 29.3927 11.4383 29.4732 11.4922 29.5664L15.2236 36.0303C15.4997 36.5086 15.3357 37.1204 14.8574 37.3965L9.5918 40.4366C9.34606 40.5784 9.06504 40.6037 8.8125 40.5303C4.06889 40.3112 0.231566 31.5287 0.0107422 20.5352H0.00585938C0.00621821 20.4994 0.00737689 20.4636 0.0078125 20.4278C0.00547313 20.2972 0.00131381 20.1664 0 20.0352H0.0166016C0.23741 9.04164 4.07474 0.259238 8.81836 0.0400764Z" fill="black"/>
</svg>
