<svg width="1130" height="2279" viewBox="0 0 1130 2279" fill="none" xmlns="http://www.w3.org/2000/svg">
<path d="M334.669 2158.31L206.837 2278.62L0.000976562 2232.66L0.000976562 2083.95L206.837 2038L334.669 2158.31ZM516.135 128.256L389.732 254.657L516.369 381.294L461.922 435.741L461.752 435.571L390.199 507.125L516.902 633.828L516.688 634.042L516.902 634.256L390.232 760.925L517.136 887.828L516.805 888.159L516.902 888.257L390.366 1014.79L516.668 1141.09L462.221 1195.54L462.151 1195.47L389.966 1267.66L516.603 1394.29L462.155 1448.74L461.984 1448.57L390.432 1520.12L517.135 1646.83L516.92 1647.04L517.135 1647.26L390.466 1773.92L517.369 1900.83L517.038 1901.16L517.136 1901.26L390.6 2027.79L516.902 2154.09L462.455 2208.54L336.152 2082.24L336.117 2082.27L281.67 2027.83L281.705 2027.79L281.437 2027.52L335.884 1973.08L336.152 1973.34L408.571 1900.92L281.902 1774.26L281.999 1774.16L281.668 1773.83L408.454 1647.04L335.984 1574.57L335.35 1575.21L280.902 1520.76L407.538 1394.12L335.519 1322.11L335.351 1322.27L280.903 1267.83L407.704 1141.03L335.919 1069.24L335.883 1069.28L281.436 1014.83L281.472 1014.79L281.201 1014.52L335.648 960.075L335.919 960.346L408.339 887.925L281.67 761.256L281.767 761.159L281.436 760.828L408.222 634.042L335.752 561.572L335.117 562.208L280.67 507.761L407.306 381.125L335.285 309.104L335.115 309.275L280.668 254.828L461.687 73.8086L516.135 128.256ZM692.136 128.256L565.733 254.657L692.369 381.294L637.922 435.741L637.752 435.571L566.199 507.125L692.902 633.828L692.688 634.042L692.902 634.256L566.233 760.925L693.137 887.828L692.806 888.159L692.902 888.256L566.366 1014.79L692.669 1141.09L638.222 1195.54L638.151 1195.47L565.966 1267.66L692.603 1394.29L638.155 1448.74L637.985 1448.57L566.433 1520.12L693.136 1646.83L692.921 1647.04L693.136 1647.26L566.466 1773.92L693.369 1900.83L693.038 1901.16L693.136 1901.26L566.599 2027.79L692.901 2154.09L638.454 2208.54L512.151 2082.24L512.116 2082.28L457.669 2027.83L457.704 2027.79L457.435 2027.52L511.882 1973.08L512.151 1973.35L584.571 1900.92L457.903 1774.26L458 1774.16L457.669 1773.83L584.455 1647.04L511.985 1574.57L511.351 1575.21L456.903 1520.76L583.538 1394.12L511.519 1322.1L511.349 1322.28L456.901 1267.83L583.704 1141.02L511.919 1069.24L511.883 1069.28L457.436 1014.83L457.472 1014.79L457.202 1014.52L511.649 960.075L511.919 960.345L584.339 887.925L457.67 761.256L457.767 761.158L457.437 760.828L584.222 634.042L511.752 561.572L511.116 562.209L456.669 507.762L583.306 381.124L511.286 309.104L511.116 309.275L456.669 254.828L637.688 73.8086L692.136 128.256ZM869.136 128.256L742.733 254.657L869.37 381.294L814.923 435.741L814.752 435.57L743.199 507.124L869.902 633.827L869.687 634.041L869.902 634.256L743.231 760.925L870.135 887.828L869.805 888.158L869.902 888.256L743.366 1014.79L869.669 1141.09L815.222 1195.54L815.151 1195.47L742.966 1267.66L869.603 1394.29L815.155 1448.74L814.985 1448.57L743.433 1520.12L870.136 1646.83L869.921 1647.04L870.136 1647.26L743.467 1773.92L870.37 1900.83L870.038 1901.16L870.136 1901.26L743.6 2027.79L869.901 2154.09L815.454 2208.54L689.152 2082.24L689.116 2082.28L634.669 2027.83L634.704 2027.79L634.436 2027.52L688.883 1973.08L689.151 1973.34L761.572 1900.92L634.903 1774.26L635 1774.16L634.669 1773.83L761.455 1647.04L688.985 1574.57L688.351 1575.21L633.903 1520.76L760.538 1394.12L688.519 1322.11L688.35 1322.28L633.902 1267.83L760.704 1141.02L688.919 1069.24L688.883 1069.28L634.436 1014.83L634.472 1014.79L634.202 1014.52L688.649 960.075L688.919 960.345L761.338 887.925L634.669 761.256L634.767 761.158L634.436 760.827L761.222 634.041L688.752 561.571L688.116 562.209L633.669 507.762L760.306 381.124L688.286 309.104L688.116 309.275L633.669 254.828L814.688 73.8086L869.136 128.256ZM1129.34 1954.95L1129.34 2103.66L922.5 2149.62L794.668 2029.31L922.5 1909L1129.34 1954.95ZM334.67 1900.31L206.838 2020.62L0.000976562 1974.66L0.000976562 1825.95L206.838 1780L334.67 1900.31ZM1129.34 1701.95L1129.34 1850.66L922.501 1896.62L794.669 1776.31L922.501 1656L1129.34 1701.95ZM334.668 1647.31L206.836 1767.62L-1.21513e-10 1721.66L-1.21505e-10 1572.95L206.836 1527L334.668 1647.31ZM1120.34 1445.95V1594.66L913.501 1640.62L785.669 1520.31L913.501 1400L1120.34 1445.95ZM343.669 1391.31L215.837 1511.62L9.00098 1465.66L9.00098 1316.95L215.837 1271L343.669 1391.31ZM1120.34 1192.95V1341.66L913.502 1387.62L785.67 1267.31L913.502 1147L1120.34 1192.95ZM343.67 1138.31L215.838 1258.62L9.00195 1212.66L9.00195 1063.95L215.838 1018L343.67 1138.31ZM1120.34 936.953V1085.66L913.502 1131.62L785.67 1011.31L913.502 890.999L1120.34 936.953ZM343.669 882.31L215.837 1002.62L9 956.664L9 807.954L215.837 762.001L343.669 882.31ZM1120.34 683.954V832.663L913.5 878.617L785.668 758.309L913.5 638L1120.34 683.954ZM343.669 629.309L215.837 749.617L9 703.663L9 554.954L215.837 509L343.669 629.309ZM1120.34 430.954V579.664L913.501 625.617L785.669 505.309L913.501 385L1120.34 430.954ZM343.669 376.309L215.837 496.617L9.00098 450.664L9.00098 301.954L215.837 256L343.669 376.309ZM1120.34 174.954V323.663L913.501 369.617L785.669 249.309L913.501 129L1120.34 174.954ZM343.669 120.309L215.837 240.617L9.00098 194.663L9.00098 45.9541L215.837 0L343.669 120.309Z" fill="black"/>
</svg>
