<svg width="35" height="35" viewBox="0 0 35 35" fill="none" xmlns="http://www.w3.org/2000/svg">
<rect width="35" height="35" rx="17.5" fill="black"/>
<path d="M17.7158 4.32129C23.2045 4.32143 27.6543 10.1251 27.6543 17.2842C27.6543 18.8499 27.4407 20.3507 27.0508 21.7402L31.5322 24.8457H27.1455C25.8307 23.2146 22.1066 22.0371 17.7158 22.0371C13.3251 22.0371 9.6011 23.2146 8.28613 24.8457H3.4668L8.31445 21.4863C7.96832 20.1683 7.77734 18.7552 7.77734 17.2842C7.77737 10.125 12.2271 4.32129 17.7158 4.32129Z" fill="white"/>
<ellipse cx="17.4999" cy="26.1416" rx="4.53704" ry="2.80864" fill="white"/>
<path d="M3.65797 24.8351L7.78777 18.0913L10.6552 21.151L3.65797 24.8351Z" fill="white"/>
<path d="M31.3291 24.8467L24.6405 21.1232L27.6056 18.1581L31.3291 24.8467Z" fill="white"/>
<circle cx="18" cy="5" r="3" fill="white"/>
</svg>
