<svg width="1438" height="2000" viewBox="0 0 1438 2000" fill="none" xmlns="http://www.w3.org/2000/svg">
<path d="M176.376 1722.64L239.997 1924.74L111.211 1999.09L0 1877.84V1707.17L8.26953 1672.09L176.376 1722.64ZM395.48 1596.14L459.102 1798.24L330.315 1872.59L187.1 1716.45L227.374 1545.59L395.48 1596.14ZM612.683 1460.34L676.304 1662.45L547.518 1736.8L404.303 1580.65L444.577 1409.79L612.683 1460.34ZM1438 903.436L1398.47 892.843L1398.53 892.61L1300.78 866.42L1254.41 1039.5L1254.12 1039.42L1254.04 1039.71L1081 993.349L1034.55 1166.7L1034.1 1166.58L1034.07 1166.71L861.215 1120.4L814.985 1292.93L740.609 1273L740.635 1272.91L642.026 1246.48L595.675 1419.47L521.299 1399.54L521.36 1399.31L423.617 1373.12L377.241 1546.2L376.948 1546.12L376.87 1546.42L203.836 1500.05L157.387 1673.4L156.935 1673.28L156.899 1673.42L0 1631.37V1551.26L4.07617 1552.36L3.97656 1552.72L102.904 1579.23L149.269 1406.2L149.401 1406.23L149.522 1405.78L322.715 1452.19L349.24 1353.19L348.373 1352.96L368.302 1278.58L541.289 1324.94L567.65 1226.56L567.419 1226.49L587.349 1152.12L760.563 1198.53L786.839 1100.47L786.79 1100.46L806.719 1026.08L806.768 1026.09L806.867 1025.72L881.243 1045.65L881.144 1046.02L980.071 1072.53L1026.44 899.496L1026.57 899.531L1026.69 899.08L1199.88 945.486L1226.41 846.491L1225.54 846.259L1245.47 771.883L1418.46 818.234L1438 745.296V903.436ZM831.787 1333.84L895.408 1535.95L766.622 1610.3L623.406 1454.15L663.681 1283.29L831.787 1333.84ZM1438 508.737V588.453L1430.69 586.496L1384.34 759.485L1309.97 739.556L1310.03 739.324L1212.28 713.134L1165.91 886.213L1165.62 886.134L1165.54 886.428L992.503 840.062L946.055 1013.42L945.603 1013.29L945.567 1013.43L772.715 967.111L726.485 1139.64L652.109 1119.71L652.134 1119.62L553.526 1093.2L507.175 1266.19L432.799 1246.26L432.86 1246.03L335.117 1219.84L288.741 1392.92L288.448 1392.84L288.37 1393.13L115.336 1346.76L68.8867 1520.12L68.4346 1520L68.3994 1520.13L0 1501.8V1422.08L14.4043 1425.94L60.7686 1252.91L60.9004 1252.95L61.0225 1252.5L234.215 1298.9L260.74 1199.91L259.873 1199.67L279.802 1125.3L452.789 1171.65L479.149 1073.27L478.919 1073.21L498.849 998.831L672.063 1045.24L698.339 947.183L698.29 947.17L718.219 872.793L718.269 872.806L718.367 872.438L792.743 892.367L792.644 892.734L891.571 919.242L937.936 746.21L938.067 746.245L938.189 745.793L1111.38 792.199L1137.91 693.205L1137.04 692.973L1156.97 618.596L1329.96 664.947L1356.32 566.567L1356.09 566.506L1376.02 492.129L1438 508.737ZM1053.49 1205.84L1117.11 1407.95L988.324 1482.3L845.109 1326.15L885.384 1155.29L1053.49 1205.84ZM1272.59 1079.34L1336.21 1281.45L1207.43 1355.8L1064.21 1199.65L1104.49 1028.79L1272.59 1079.34ZM1438 379.896V459.612L1342.69 434.075L1296.34 607.064L1221.97 587.136L1222.03 586.903L1124.28 560.713L1077.91 733.793L1077.62 733.714L1077.54 734.007L904.503 687.642L858.055 860.995L857.603 860.874L857.567 861.007L684.715 814.69L638.485 987.224L564.109 967.295L564.135 967.199L465.526 940.777L419.175 1113.77L344.799 1093.84L344.86 1093.61L247.117 1067.42L200.741 1240.5L200.448 1240.42L200.37 1240.71L27.3369 1194.34L0 1296.37V1107.3L146.215 1146.48L172.74 1047.49L171.873 1047.25L191.802 972.878L364.789 1019.23L391.15 920.849L390.919 920.787L410.849 846.411L584.063 892.823L610.339 794.762L610.29 794.749L630.219 720.373L630.268 720.386L630.367 720.018L704.743 739.947L704.644 740.314L803.571 766.822L849.936 593.789L850.068 593.824L850.189 593.373L1023.38 639.779L1049.91 540.784L1049.04 540.552L1068.97 466.176L1241.96 512.527L1268.32 414.146L1268.09 414.085L1288.02 339.709L1438 379.896ZM1438 936.695V1222.68L1426.53 1229.3L1283.32 1073.15L1323.59 902.292L1438 936.695ZM149.366 911.854L109.092 1082.71L0 1049.91V759.257L6.15039 755.706L149.366 911.854ZM375.568 791.648L335.294 962.509L167.188 911.957L103.566 709.855L232.354 635.5L375.568 791.648ZM594.673 665.148L554.398 836.009L386.292 785.457L322.671 583.355L451.457 509L594.673 665.148ZM816.375 537.148L776.101 708.009L607.994 657.457L544.374 455.355L673.16 381L816.375 537.148ZM1035.48 410.648L995.205 581.509L827.099 530.957L763.479 328.855L892.265 254.5L1035.48 410.648ZM1254.58 284.148L1214.31 455.009L1046.2 404.457L982.582 202.355L1111.37 128L1254.58 284.148ZM1438 114.403V318.577L1436.01 327.009L1267.91 276.457L1204.29 74.3555L1333.07 0L1438 114.403Z" fill="black"/>
</svg>
