<svg width="386" height="385" viewBox="0 0 386 385" fill="none" xmlns="http://www.w3.org/2000/svg">
<path d="M213.727 327.895C219.015 333.942 222.216 341.837 222.216 350.474C222.216 369.503 206.677 384.93 187.51 384.93C168.343 384.929 152.805 369.503 152.805 350.474C152.805 341.568 156.208 333.452 161.793 327.337V226.632H213.727V327.895ZM188.01 327.503C175.461 327.503 165.289 337.563 165.289 349.974C165.289 362.384 175.461 372.445 188.01 372.445C200.558 372.445 210.73 362.384 210.73 349.974C210.73 337.563 200.558 327.503 188.01 327.503ZM344.56 148.232C362.46 148.232 377.993 158.362 385.745 173.2H345.143L345.083 173.141L322.059 196.165L345.059 219.165V219.641H383.724C375.475 232.552 361.017 241.113 344.56 241.113C328.53 241.113 314.397 232.992 306.051 220.64H58.4951C52.287 226.819 43.8075 230.627 34.4561 230.627C15.4266 230.627 -1.69977e-06 214.865 0 195.422C5.29923e-05 175.979 15.4267 160.217 34.4561 160.217C43.553 160.217 51.8249 163.821 57.9834 169.705H161.793V169.704H213.727V169.705H305.396C313.644 156.793 328.102 148.232 344.56 148.232ZM34.9551 172.701C22.5447 172.701 12.4844 182.874 12.4844 195.422C12.4845 207.97 22.5448 218.142 34.9551 218.143C47.3655 218.143 57.4266 207.97 57.4268 195.422C57.4268 182.873 47.3656 172.701 34.9551 172.701ZM210.73 0C224.749 7.99376 234.2 23.078 234.2 40.3701C234.2 56.3994 226.079 70.5311 213.727 78.877V163.213H161.793V78.877C149.441 70.5311 141.319 56.3994 141.319 40.3701C141.319 23.0778 150.771 7.99372 164.789 0V39.8711H165.645L165.018 40.498L188.042 63.5225L211.066 40.498L210.439 39.8711H210.73V0Z" fill="#DAD9DC"/>
</svg>
