<svg width="896" height="863" viewBox="0 0 896 863" fill="none" xmlns="http://www.w3.org/2000/svg">
<path d="M176.841 862.967H2.37988L0 859.227L66.4902 792.736L176.841 862.967ZM895.452 375.667H832.517V489.148H832.22V489.235L719.067 489.234V602.179H670.38V602.115L605.828 602.116V715.359L557.14 715.358V715.206H493.154L493.155 828.509H492.963V828.7H379.691V862.967H331.004V780.309L331.09 780.308L331.091 780.012H444.467V715.206L443.898 715.207V666.519H557.14V602.116L556.989 602.117V553.429L670.38 553.428V489.234H670.347V440.547L670.38 440.546V440.306H719.067V440.546H783.829V327.274H783.914V326.979L895.452 326.979V375.667ZM895.452 567.927H797.76V680.872H749.072V680.808L684.521 680.809V794.051H635.832V793.898H571.847L571.848 862.967H409.696V859.001L409.783 859V858.704H523.159V793.898L522.591 793.899V745.211H635.832V680.809L635.681 680.81L635.68 632.12H749.072V567.927H749.04V519.239L749.072 519.238V518.998H797.76V519.238H862.521V405.967H862.606V405.672L895.452 405.671V567.927ZM876.9 598.378H895.452V647.066H876.9V760.012H828.212V759.948L763.66 759.949V862.967H601.73V824.351L714.972 824.35V759.949H714.82L714.821 711.26H828.212V647.066L828.18 647.067V598.379L828.212 598.378V598.138H876.9V598.378ZM893.857 782.249L895.452 784.754V862.967H785.459L782.91 778.886L893.857 782.249ZM294.873 749.313L298.236 860.262L187.289 856.897L115.355 743.871L181.847 677.38L294.873 749.313ZM407.992 636.192L411.356 747.14L300.408 743.776L228.475 630.751L294.966 564.26L407.992 636.192ZM526.479 525.755L529.843 636.702L418.896 633.339L346.962 520.312L413.452 453.822L526.479 525.755ZM639.599 412.635L642.963 523.582L532.015 520.219L460.082 407.192L526.573 340.701L639.599 412.635ZM754.06 298.173L757.424 409.121L646.476 405.757L574.543 292.73L641.033 226.24L754.06 298.173ZM867.181 185.053L870.545 296L759.597 292.636L687.663 179.609L754.153 113.119L867.181 185.053ZM895.452 17.9326V180.205L872.718 179.517L800.785 66.4893L867.274 0L895.452 17.9326Z" fill="#D9D9D9"/>
</svg>
