<svg width="959" height="772" viewBox="0 0 959 772" fill="none" xmlns="http://www.w3.org/2000/svg">
<path d="M117.811 772H0L49.8867 725.422L117.811 772ZM283.659 691.094L283.341 772H154.138L99.4316 679.165L170.078 613.206L283.659 691.094ZM958.229 163.195V329.744L915.228 328.267L915.232 328.11L849.5 325.852L845.513 442.248L845.315 442.241L845.31 442.438L728.943 438.439L724.95 555.02L724.646 555.009L724.644 555.098L608.4 551.104L604.426 667.132L554.408 665.413L554.41 665.349L488.096 663.07L484.364 772H317.816L319.478 723.516L435.812 727.513L438.078 661.352L437.923 661.347L439.637 611.328L556.123 615.331L558.383 549.385L558.35 549.384L560.063 499.365L560.097 499.366L560.105 499.119L610.123 500.838L610.114 501.085L676.643 503.371L680.63 387.007L680.719 387.01L680.729 386.706L797.201 390.708L799.482 324.133L798.898 324.113L800.612 274.096L916.946 278.093L919.213 211.932L919.058 211.927L920.771 161.908L958.229 163.195ZM958.229 360.447V410.523L927.571 409.471L923.584 525.867L923.387 525.86L923.381 526.058L807.015 522.059L803.021 638.639L802.718 638.628L802.715 638.718L686.472 634.723L682.497 750.751L632.479 749.032L632.481 748.968L566.168 746.689L565.301 772H515.224L516.149 744.971L515.994 744.966L517.708 694.948L634.194 698.95L636.454 633.004L636.422 633.003L638.135 582.985L638.168 582.986L638.177 582.738L688.194 584.457L688.186 584.705L754.714 586.99L758.701 470.626L758.79 470.629L758.801 470.325L875.272 474.327L877.554 407.752L876.97 407.732L878.684 357.715L958.229 360.447ZM958.229 441.845V608.651L885.53 606.153L881.537 722.733L881.233 722.723L881.23 722.812L764.987 718.817L763.165 772H713.087L714.969 717.099L714.937 717.098L716.65 667.079L716.683 667.08L716.691 666.833L766.71 668.552L766.701 668.799L833.229 671.085L837.216 554.721L837.305 554.724L837.315 554.42L953.787 558.422L956.068 491.847L955.485 491.827L957.198 441.81L958.229 441.845ZM899.267 744.743L915.329 772H785.271L785.407 737.371L899.267 744.743ZM958.229 628.562V772H952.905L905.148 739.251L905.598 625.154L958.229 628.562ZM409.268 581.822L408.817 695.919L294.959 688.547L225.04 569.894L295.687 503.935L409.268 581.822ZM529.458 469.606L529.009 583.702L415.149 576.33L345.23 457.678L415.877 391.719L529.458 469.606ZM651.074 356.059L650.625 470.155L536.766 462.783L466.847 344.131L537.493 278.171L651.074 356.059ZM771.265 243.843L770.815 357.938L656.957 350.566L587.037 231.914L657.684 165.955L771.265 243.843ZM891.456 131.626L891.006 245.723L777.147 238.351L707.229 119.697L777.875 53.7383L891.456 131.626ZM958.229 128.652L898.764 124.803L828.844 6.15039L837.573 -2H958.229V128.652Z" fill="#D9D9D9"/>
</svg>
